<svg xmlns="http://www.w3.org/2000/svg" viewBox="0 0 48 48"><title>05-error 404</title><g id="_05-error_404" data-name="05-error 404"><path d="M45,40H3a3,3,0,0,1-3-3V11A3,3,0,0,1,3,8H6v2H3a1,1,0,0,0-1,1V37a1,1,0,0,0,1,1H45a1,1,0,0,0,1-1V11a1,1,0,0,0-1-1H42V8h3a3,3,0,0,1,3,3V37A3,3,0,0,1,45,40Z"/><rect x="15" y="39" width="2" height="4"/><path d="M13,47H11V45a3,3,0,0,1,3-3H24v2H14a1,1,0,0,0-1,1Z"/><rect x="31" y="39" width="2" height="4"/><path d="M37,47H35V45a1,1,0,0,0-1-1H29V42h5a3,3,0,0,1,3,3Z"/><rect x="9" y="46" width="30" height="2"/><path d="M40,36H8a3,3,0,0,1-3-3V3A3,3,0,0,1,8,0H40a3,3,0,0,1,3,3V33A3,3,0,0,1,40,36ZM8,2A1,1,0,0,0,7,3V33a1,1,0,0,0,1,1H40a1,1,0,0,0,1-1V3a1,1,0,0,0-1-1Z"/><rect x="6" y="6" width="36" height="2"/><rect x="9" y="3" width="2" height="2"/><rect x="13" y="3" width="2" height="2"/><rect x="17" y="3" width="2" height="2"/><rect x="1" y="30" width="5" height="2"/><rect x="42" y="30" width="5" height="2"/><rect x="9" y="10" width="2" height="2"/><rect x="37" y="10" width="2" height="2"/><rect x="37" y="30" width="2" height="2"/><rect x="9" y="30" width="2" height="2"/><path d="M17,25H15V23H12a1,1,0,0,1-.781-1.625l4-5A1,1,0,0,1,17,17v4h1v2H17Zm-2.919-4H15V19.851Z"/><path d="M35,25H33V23H30a1,1,0,0,1-.781-1.625l4-5A1,1,0,0,1,35,17v4h1v2H35Zm-2.919-4H33V19.851Z"/><path d="M25,25H23a3,3,0,0,1-3-3V19a3,3,0,0,1,3-3h2a3,3,0,0,1,3,3v3A3,3,0,0,1,25,25Zm-2-7a1,1,0,0,0-1,1v3a1,1,0,0,0,1,1h2a1,1,0,0,0,1-1V19a1,1,0,0,0-1-1Z"/><rect x="13" y="30" width="22" height="2"/><rect x="13" y="10" width="22" height="2"/></g></svg>