<?xml version="1.0" encoding="iso-8859-1"?>
<!-- Generator: Adobe Illustrator 19.0.1, SVG Export Plug-In . SVG Version: 6.00 Build 0)  -->
<svg version="1.1" xmlns="http://www.w3.org/2000/svg" xmlns:xlink="http://www.w3.org/1999/xlink" x="0px" y="0px"
	 viewBox="0 0 128 128" style="enable-background:new 0 0 128 128;" xml:space="preserve">
<g id="_x39_">
	<path id="icon_7_"  d="M92.591,6.124c-6.283,0-12.459,1.672-17.862,4.82
		c-3.676,2.152-6.914,4.926-9.623,8.246l-1.11,1.364l-1.109-1.364c-2.705-3.32-5.942-6.094-9.619-8.246
		c-5.402-3.148-11.58-4.82-17.865-4.82c-19.191,0-34.73,15.484-35.381,35.25c-0.33,9.918,2.848,19.973,9.439,29.902
		c5.194,7.816,54.535,50.6,54.535,50.6s49.345-42.791,54.535-50.6c6.598-9.93,9.77-19.988,9.445-29.902
		C127.321,21.608,111.78,6.124,92.591,6.124z"/>
</g>
<g id="Layer_1">
</g>
</svg>
